<svg xmlns="http://www.w3.org/2000/svg" width="253.016" height="354.866" viewBox="0 0 253.016 354.866"><g fill="#1D1D1B"><path d="M165.156 55.755c-13.406 0-24.27 10.869-24.27 24.273 0 13.402 10.863 24.268 24.27 24.268 13.408 0 24.271-10.865 24.271-24.268.001-13.404-10.863-24.273-24.271-24.273z"/><path d="M44.094 14.269l-.09.092H22.178v21.825l-.094.091.094.09V225.92h211.559V14.36H44.186l-.092-.091zm158.515 31.22v127.292L75.314 45.489h127.295zM53.307 67.497l65.758 65.758H53.307V67.497zm0 96.887h96.887l30.406 30.408H53.307v-30.408z"/></g></svg>